<svg aria-hidden="true" style="position: absolute; width: 0; height: 0; overflow: hidden;" version="1.1" xmlns="http://www.w3.org/2000/svg" xmlns:xlink="http://www.w3.org/1999/xlink">
<defs>
<symbol id="logo" viewBox="0 0 178 32">
<path d="M0 31.4v-31.4h13.412c2.408 0 4.424 0.332 6.047 0.997 1.633 0.664 2.858 1.595 3.675 2.79 0.827 1.196 1.241 2.581 1.241 4.155 0 1.196-0.257 2.264-0.77 3.204-0.513 0.93-1.22 1.702-2.12 2.315s-1.942 1.043-3.125 1.288v0.307c1.298 0.061 2.497 0.404 3.597 1.027 1.11 0.624 2 1.492 2.67 2.607 0.67 1.104 1.005 2.412 1.005 3.925 0 1.686-0.44 3.194-1.319 4.523-0.879 1.319-2.152 2.361-3.816 3.128-1.665 0.756-3.686 1.135-6.062 1.135h-14.433zM7.774 25.282h4.806c1.686 0 2.926-0.312 3.722-0.935 0.806-0.624 1.209-1.492 1.209-2.607 0-0.807-0.194-1.503-0.581-2.085-0.387-0.593-0.937-1.048-1.649-1.365-0.712-0.327-1.565-0.491-2.56-0.491h-4.947v7.482zM7.774 12.91h4.303c0.848 0 1.602-0.138 2.262-0.414s1.173-0.675 1.539-1.196c0.377-0.521 0.565-1.15 0.565-1.886 0-1.053-0.382-1.881-1.147-2.484s-1.796-0.905-3.094-0.905h-4.429v6.884z"></path>
<path d="M27.767 0h8.685l6.8 13.14h0.283l6.8-13.14h8.685l-11.763 20.913v10.487h-7.727v-10.487l-11.763-20.913z"></path>
<path d="M63.258 6.163v-6.163h27.186v6.163h-9.753v25.237h-7.664v-25.237h-9.769z"></path>
<path d="M94.241 31.4v-31.4h22.427v6.163h-14.652v6.439h13.507v6.179h-13.507v6.455h14.652v6.163h-22.427z"></path>
<path d="M121.537 31.4v-31.4h22.427v6.163h-14.652v6.439h13.507v6.179h-13.507v6.455h14.652v6.163h-22.427z"></path>
<path d="M156.701 0l5.874 9.92h0.251l0.252-0.42-6.376-9.5z"></path>
<path d="M162.575 9.92l-5.874-9.92h-8.764l9.722 15.7-9.973 15.7h8.858l6.031-10.027h0.251l6.031 10.027h8.921l-14.7-21.9-0.252 0.42h-0.251z"></path>
<path d="M169.934 0h7.844v7.85h-7.844v-7.85z"></path>
</symbol>
<symbol id="icon-sun" viewBox="0 0 32 32">
<path fill="#f9f0e5" style="fill: var(--color1, #f9f0e5)" d="M32 16c0 8.837-7.163 16-16 16s-16-7.163-16-16c0-8.837 7.163-16 16-16s16 7.163 16 16z"></path>
<path fill="none" stroke="#15005b" stroke-width="1.1355" stroke-miterlimit="10" stroke-linecap="round" stroke-linejoin="round" style="stroke: var(--color3, #15005b)" d="M16 5.677v21.161"></path>
<path fill="none" stroke="#15005b" stroke-width="1.1355" stroke-miterlimit="10" stroke-linecap="round" stroke-linejoin="round" style="stroke: var(--color3, #15005b)" d="M16 21.956c-3.15 0-5.697-2.547-5.697-5.697s2.547-5.697 5.697-5.697"></path>
<path fill="none" stroke="#15005b" stroke-width="1.1355" stroke-miterlimit="10" stroke-linecap="round" stroke-linejoin="round" style="stroke: var(--color3, #15005b)" d="M8.52 8.779l1.725 1.725"></path>
<path fill="none" stroke="#15005b" stroke-width="1.1355" stroke-miterlimit="10" stroke-linecap="round" stroke-linejoin="round" style="stroke: var(--color3, #15005b)" d="M5.419 16.258h2.442"></path>
<path fill="none" stroke="#15005b" stroke-width="1.1355" stroke-miterlimit="10" stroke-linecap="round" stroke-linejoin="round" style="stroke: var(--color3, #15005b)" d="M8.52 23.738l1.725-1.725"></path>
<path fill="none" stroke="#15005b" stroke-width="1.1355" stroke-miterlimit="10" stroke-linecap="round" stroke-linejoin="round" style="stroke: var(--color3, #15005b)" d="M16 13.45c0.977-1.725 2.832-2.889 4.957-2.889 0.13 0 0.252 0.008 0.383 0.016-1.359 0.716-2.279 2.141-2.279 3.777 0 2.36 1.913 4.273 4.273 4.273 1.302 0 2.466-0.586 3.247-1.506-0.423 2.743-2.775 4.834-5.624 4.834-2.124 0-3.98-1.164-4.957-2.889"></path>
</symbol>
<symbol id="icon-cart" viewBox="0 0 32 32">
<path d="M11.3472 11.2403C11.3472 11.0091 11.5401 10.8217 11.7782 10.8217H21.855C21.9806 10.8217 22.1 10.875 22.1819 10.9675C22.2638 11.0601 22.3 11.1828 22.2811 11.3035L21.8506 14.0461C21.818 14.2533 21.6343 14.4018 21.425 14.4018C21.4034 14.4018 21.3815 14.4002 21.3595 14.3969C21.1241 14.3621 20.9624 14.1485 20.9983 13.9199L21.3532 11.659H11.7782C11.5401 11.659 11.3472 11.4715 11.3472 11.2403ZM14.6196 18.3779H10.7997L9.20705 9.34797C9.17161 9.14696 8.99221 9 8.7822 9H6.43103C6.19296 9 6 9.18743 6 9.41868C6 9.64993 6.19296 9.83735 6.43103 9.83735H8.41875L10.0114 18.8673C10.0473 19.0713 10.2296 19.2154 10.4357 19.2154C10.4598 19.2153 10.4844 19.2134 10.509 19.2093C10.5107 19.2089 10.5124 19.2087 10.5141 19.2083C10.5395 19.2129 10.5657 19.2152 10.5924 19.2152H14.6196C14.8577 19.2152 15.0506 19.0278 15.0506 18.7965C15.0506 18.5653 14.8577 18.3779 14.6196 18.3779ZM13.7865 21.3407V22.0837C13.7865 22.782 13.2016 23.3502 12.4826 23.3502C11.7636 23.3502 11.1787 22.782 11.1787 22.0837V21.3407C11.1787 20.6423 11.7636 20.0742 12.4825 20.0742C13.2015 20.0742 13.7865 20.6423 13.7865 21.3407ZM12.9244 21.3407C12.9244 21.1041 12.7262 20.9116 12.4826 20.9116H12.4825C12.239 20.9116 12.0408 21.1041 12.0408 21.3407V22.0837C12.0408 22.3203 12.239 22.5128 12.4825 22.5128C12.7262 22.5128 12.9244 22.3203 12.9244 22.0837V21.3407ZM24.9404 17.4357C24.6861 19.4206 23.6512 21.1904 22.0264 22.4192C20.659 23.4533 19.0115 24 17.3059 24C16.9848 24 16.6617 23.9806 16.3379 23.9414C16.0671 23.9086 15.7941 23.8611 15.5263 23.8003C15.3465 23.7595 15.2135 23.6121 15.1954 23.4336C15.1395 22.8812 15.147 22.3206 15.2179 21.7677C15.7431 17.6703 19.6023 14.7516 23.8205 15.2619C24.0916 15.2947 24.3646 15.3422 24.6321 15.403C24.8118 15.4438 24.9448 15.5912 24.9629 15.7695C25.019 16.3217 25.0114 16.8823 24.9404 17.4357ZM24.1286 16.1557C23.9906 16.1306 23.8519 16.1096 23.7138 16.0929C19.9677 15.6399 16.5398 18.232 16.0733 21.8712C16.0467 22.0788 16.0302 22.2875 16.0236 22.4963L19.9669 19.1406C20.1458 18.9882 20.4182 19.0056 20.5751 19.1796C20.7319 19.3535 20.714 19.6181 20.5349 19.7704L16.5909 23.1267C18.3556 23.3036 20.0924 22.8204 21.4967 21.7584C22.9398 20.667 23.859 19.0951 24.0849 17.3322C24.1351 16.9416 24.1497 16.5471 24.1286 16.1557Z" fill="#01005B" stroke="#01005B" stroke-width="0.3"/>
</symbol>
<symbol id="icon-wave" viewBox="0 0 32 32">
<path d="M11.3472 11.2403C11.3472 11.0091 11.5401 10.8217 11.7782 10.8217H21.855C21.9806 10.8217 22.1 10.875 22.1819 10.9675C22.2638 11.0601 22.3 11.1828 22.2811 11.3035L21.8506 14.0461C21.818 14.2533 21.6343 14.4018 21.425 14.4018C21.4034 14.4018 21.3815 14.4002 21.3595 14.3969C21.1241 14.3621 20.9624 14.1485 20.9983 13.9199L21.3532 11.659H11.7782C11.5401 11.659 11.3472 11.4715 11.3472 11.2403ZM14.6196 18.3779H10.7997L9.20705 9.34797C9.17161 9.14696 8.99221 9 8.7822 9H6.43103C6.19296 9 6 9.18743 6 9.41868C6 9.64993 6.19296 9.83735 6.43103 9.83735H8.41875L10.0114 18.8673C10.0473 19.0713 10.2296 19.2154 10.4357 19.2154C10.4598 19.2153 10.4844 19.2134 10.509 19.2093C10.5107 19.2089 10.5124 19.2087 10.5141 19.2083C10.5395 19.2129 10.5657 19.2152 10.5924 19.2152H14.6196C14.8577 19.2152 15.0506 19.0278 15.0506 18.7965C15.0506 18.5653 14.8577 18.3779 14.6196 18.3779ZM13.7865 21.3407V22.0837C13.7865 22.782 13.2016 23.3502 12.4826 23.3502C11.7636 23.3502 11.1787 22.782 11.1787 22.0837V21.3407C11.1787 20.6423 11.7636 20.0742 12.4825 20.0742C13.2015 20.0742 13.7865 20.6423 13.7865 21.3407ZM12.9244 21.3407C12.9244 21.1041 12.7262 20.9116 12.4826 20.9116H12.4825C12.239 20.9116 12.0408 21.1041 12.0408 21.3407V22.0837C12.0408 22.3203 12.239 22.5128 12.4825 22.5128C12.7262 22.5128 12.9244 22.3203 12.9244 22.0837V21.3407ZM24.9404 17.4357C24.6861 19.4206 23.6512 21.1904 22.0264 22.4192C20.659 23.4533 19.0115 24 17.3059 24C16.9848 24 16.6617 23.9806 16.3379 23.9414C16.0671 23.9086 15.7941 23.8611 15.5263 23.8003C15.3465 23.7595 15.2135 23.6121 15.1954 23.4336C15.1395 22.8812 15.147 22.3206 15.2179 21.7677C15.7431 17.6703 19.6023 14.7516 23.8205 15.2619C24.0916 15.2947 24.3646 15.3422 24.6321 15.403C24.8118 15.4438 24.9448 15.5912 24.9629 15.7695C25.019 16.3217 25.0114 16.8823 24.9404 17.4357ZM24.1286 16.1557C23.9906 16.1306 23.8519 16.1096 23.7138 16.0929C19.9677 15.6399 16.5398 18.232 16.0733 21.8712C16.0467 22.0788 16.0302 22.2875 16.0236 22.4963L19.9669 19.1406C20.1458 18.9882 20.4182 19.0056 20.5751 19.1796C20.7319 19.3535 20.714 19.6181 20.5349 19.7704L16.5909 23.1267C18.3556 23.3036 20.0924 22.8204 21.4967 21.7584C22.9398 20.667 23.859 19.0951 24.0849 17.3322C24.1351 16.9416 24.1497 16.5471 24.1286 16.1557Z" fill="#01005B" stroke="#01005B" stroke-width="0.3"/>
</symbol>
<symbol id="icon-arrow" viewBox="0 0 23 10">
<path d="M18.1072 10L23 5.00003L18.1072 0L16.6372 1.5022L19.0205 3.93781L0 3.93781V6.06226L19.0205 6.06226L16.6372 8.4978L18.1072 10Z" fill="white"/>
</symbol>
<symbol id="icon-full-star" viewBox="0 0 10 10" >
  <path d="M10.1341 3.67958C10.117 3.62675 10.0854 3.57978 10.043 3.54399C10.0006 3.50819 9.94895 3.48501 9.89401 3.47707L6.74809 3.01994L5.34084 0.166545C5.31623 0.116834 5.27822 0.0749896 5.2311 0.0457341C5.18398 0.0164787 5.12962 0.000976563 5.07416 0.000976562C5.01869 0.000976562 4.96433 0.0164787 4.91721 0.0457341C4.87009 0.0749896 4.83208 0.116834 4.80748 0.166545L3.40022 3.01779L0.254303 3.47492C0.199463 3.48298 0.147963 3.50619 0.10561 3.54195C0.0632555 3.57771 0.0317307 3.62459 0.0145882 3.67731C-0.00255433 3.73002 -0.00463305 3.78648 0.00858632 3.84031C0.0218057 3.89415 0.0497976 3.94322 0.0894072 3.982L2.36572 6.20101L1.8286 9.3348C1.81961 9.38922 1.82591 9.44506 1.84681 9.49609C1.8677 9.54713 1.90237 9.59136 1.94693 9.62384C1.9915 9.65632 2.04422 9.67578 2.0992 9.68004C2.15418 9.6843 2.20926 9.6732 2.2583 9.64797L5.07442 8.17024L7.8884 9.64958C7.93748 9.67485 7.99263 9.68597 8.04767 9.68169C8.10271 9.67742 8.15547 9.65791 8.20006 9.62536C8.24465 9.59281 8.27931 9.54849 8.30015 9.49737C8.321 9.44624 8.32721 9.39033 8.3181 9.33588L7.78098 6.20208L10.0578 3.98307C10.0975 3.94459 10.1257 3.8958 10.1392 3.84218C10.1526 3.78856 10.1509 3.73225 10.1341 3.67958Z" fill="#FFB801"/>
 </symbol>
</defs>
</svg>
