<svg aria-hidden="true" style="position: absolute; width: 0; height: 0; overflow: hidden;" version="1.1" xmlns="http://www.w3.org/2000/svg" xmlns:xlink="http://www.w3.org/1999/xlink">
<defs>
<symbol id="logo" viewBox="0 0 178 32">
<path d="M0 31.4v-31.4h13.412c2.408 0 4.424 0.332 6.047 0.997 1.633 0.664 2.858 1.595 3.675 2.79 0.827 1.196 1.241 2.581 1.241 4.155 0 1.196-0.257 2.264-0.77 3.204-0.513 0.93-1.22 1.702-2.12 2.315s-1.942 1.043-3.125 1.288v0.307c1.298 0.061 2.497 0.404 3.597 1.027 1.11 0.624 2 1.492 2.67 2.607 0.67 1.104 1.005 2.412 1.005 3.925 0 1.686-0.44 3.194-1.319 4.523-0.879 1.319-2.152 2.361-3.816 3.128-1.665 0.756-3.686 1.135-6.062 1.135h-14.433zM7.774 25.282h4.806c1.686 0 2.926-0.312 3.722-0.935 0.806-0.624 1.209-1.492 1.209-2.607 0-0.807-0.194-1.503-0.581-2.085-0.387-0.593-0.937-1.048-1.649-1.365-0.712-0.327-1.565-0.491-2.56-0.491h-4.947v7.482zM7.774 12.91h4.303c0.848 0 1.602-0.138 2.262-0.414s1.173-0.675 1.539-1.196c0.377-0.521 0.565-1.15 0.565-1.886 0-1.053-0.382-1.881-1.147-2.484s-1.796-0.905-3.094-0.905h-4.429v6.884z"></path>
<path d="M27.767 0h8.685l6.8 13.14h0.283l6.8-13.14h8.685l-11.763 20.913v10.487h-7.727v-10.487l-11.763-20.913z"></path>
<path d="M63.258 6.163v-6.163h27.186v6.163h-9.753v25.237h-7.664v-25.237h-9.769z"></path>
<path d="M94.241 31.4v-31.4h22.427v6.163h-14.652v6.439h13.507v6.179h-13.507v6.455h14.652v6.163h-22.427z"></path>
<path d="M121.537 31.4v-31.4h22.427v6.163h-14.652v6.439h13.507v6.179h-13.507v6.455h14.652v6.163h-22.427z"></path>
<path d="M156.701 0l5.874 9.92h0.251l0.252-0.42-6.376-9.5z"></path>
<path d="M162.575 9.92l-5.874-9.92h-8.764l9.722 15.7-9.973 15.7h8.858l6.031-10.027h0.251l6.031 10.027h8.921l-14.7-21.9-0.252 0.42h-0.251z"></path>
<path d="M169.934 0h7.844v7.85h-7.844v-7.85z"></path>
</symbol>
</defs>
</svg>
